<?xml version="1.0" encoding="UTF-8" standalone="no"?>
<!DOCTYPE svg PUBLIC "-//W3C//DTD SVG 1.1//EN" "http://www.w3.org/Graphics/SVG/1.1/DTD/svg11.dtd">
<!-- Created with Vectornator (http://vectornator.io/) -->
<svg height="100%" stroke-miterlimit="10" style="fill-rule:nonzero;clip-rule:evenodd;stroke-linecap:round;stroke-linejoin:round;" version="1.1" viewBox="0 0 623.62 623.62" width="100%" xml:space="preserve" xmlns="http://www.w3.org/2000/svg" xmlns:vectornator="http://vectornator.io" xmlns:xlink="http://www.w3.org/1999/xlink">
<defs/>
<g id="Untitled" vectornator:layerName="Untitled">
<path d="M406.192 261.996C369.1 272.785 250.763 272.835 213.422 261.996C238.283 293.767 271.795 318.678 305.457 341.699C274.978 348.71 167.828 334.638 138.194 314.849C144.26 340.257 185.181 393.31 206.66 408.972C251.012 388.785 290.59 359.847 309.783 342.942C309.783 342.942 309.783 342.892 309.783 342.842C309.783 342.842 309.783 342.842 309.832 342.842C309.832 342.842 309.832 342.842 309.882 342.842L309.882 342.942C329.074 359.847 368.603 388.785 413.004 408.972C434.434 393.31 475.404 340.307 481.47 314.849C451.837 334.638 344.687 348.71 314.208 341.699C347.869 318.678 381.381 293.817 406.242 261.996L406.242 261.996L406.192 261.996ZM412.209 409.618C348.515 427.816 271.099 427.816 207.406 409.618C231.471 442.683 291.833 473.162 309.733 484.001L309.832 484.001L309.932 484.001C327.782 473.162 388.193 442.683 412.258 409.618L412.258 409.618L412.209 409.618ZM309.783 484.101C258.122 480.67 198.357 480.123 150.177 458.047C167.629 488.725 190.899 514.729 223.814 539.292C250.365 523.232 285.071 505.829 309.783 484.2C309.783 484.2 309.783 484.151 309.783 484.101C309.783 484.101 309.783 484.101 309.783 484.101ZM395.801 540.286C346.775 555.004 273.038 555.004 223.914 540.286C240.471 563.357 285.568 594.035 309.832 605.073C334.146 594.035 379.243 563.357 395.751 540.286L395.751 540.286L395.801 540.286ZM309.882 605.222C273.436 608.205 219.737 587.521 186.324 572.406C199.302 564.152 213.87 555.849 222.77 540.286C190.6 531.983 147.641 522.585 121.189 499.564C132.227 487.084 143.067 474.952 149.729 458.097C132.426 454.616 108.709 444.125 99.113 437.761C92.4504 429.109 88.771 379.935 92.2018 367.256C101.947 358.505 123.974 338.566 137.945 314.849C123.626 311.071 111.146 306.297 98.0192 299.784C98.9141 274.078 106.522 253.195 117.41 230.422C124.023 215.705 166.287 191.54 179.662 180.602C169.22 175.431 150.177 169.812 142.818 165.138C147.989 153.752 161.563 125.461 176.38 115.467C188.462 110.345 211.135 102.44 235.051 82.7996C231.869 82.0041 214.019 76.9325 208.351 70.2201C227.643 46.8511 247.631 24.1781 278.955 12.8417C276.867 17.8138 272.491 38.299 277.861 47.05C287.955 40.9342 298.545 19.4546 309.882 14.5322L309.882 14.7311C321.119 19.8027 331.759 40.984 341.803 47.05C347.173 38.299 342.798 17.8138 340.709 12.8417C372.034 24.1781 392.022 46.8511 411.363 70.2201C405.695 76.8828 387.845 82.0041 384.663 82.7996C408.629 102.44 431.252 110.345 443.334 115.467C458.151 125.461 471.725 153.752 476.896 165.138C469.537 169.812 450.494 175.431 440.053 180.602C453.428 191.54 495.74 215.755 502.353 230.422C513.242 253.195 520.85 274.128 521.745 299.784C508.618 306.297 496.138 311.071 481.819 314.849C495.79 338.566 517.817 358.505 527.562 367.256C530.993 379.885 527.314 429.059 520.651 437.761C511.055 444.125 487.387 454.616 470.035 458.097C476.647 474.952 487.536 487.084 498.575 499.564C472.123 522.585 429.164 531.983 396.994 540.286C405.894 555.849 420.512 564.152 433.44 572.406C400.027 587.521 346.377 608.205 309.882 605.222C309.882 605.222 309.882 605.222 309.882 605.222ZM341.157 48.1936C314.257 55.3535 305.457 55.3535 278.558 48.1936C285.021 61.9664 297.004 82.4019 307.694 95.6278C288.402 96.473 255.139 93.8378 235.897 83.1974C229.035 103.981 238.731 123.87 243.703 139.78C264.586 127.996 290.69 111.936 309.783 94.6333L309.783 94.5339C309.783 94.5339 309.783 94.5339 309.832 94.5339C309.832 94.5339 309.832 94.5339 309.882 94.5339L309.882 94.6333C328.975 111.936 355.079 127.996 375.962 139.78C380.934 123.87 390.629 103.981 383.768 83.1974C364.476 93.8378 331.262 96.473 311.97 95.6278C322.66 82.4019 334.643 62.0161 341.107 48.1936L341.107 48.1936L341.157 48.1936ZM375.266 140.874C335.29 151.117 284.474 151.117 244.498 140.874C254.443 170.359 282.983 189.452 309.882 203.225C336.781 189.452 365.321 170.409 375.266 140.874L375.266 140.874ZM308.689 204.368C276.519 209.44 205.616 199.048 181.054 181.149C185.38 211.578 201.887 241.013 212.776 260.056C247.929 246.582 281.988 226.693 308.689 204.716L308.689 204.368C308.689 204.368 308.689 204.368 308.689 204.368ZM309.882 484.101C361.542 480.67 421.308 480.123 469.488 458.047C452.035 488.725 428.766 514.729 395.85 539.292C369.299 523.232 334.593 505.829 309.882 484.2C309.882 484.2 309.882 484.151 309.882 484.101C309.882 484.101 309.882 484.101 309.882 484.101ZM310.976 204.368C343.146 209.44 414.048 199.048 438.611 181.149C434.235 211.578 417.777 241.013 406.888 260.056C371.735 246.582 337.676 226.693 310.976 204.716L310.976 204.368C310.976 204.368 310.976 204.368 310.976 204.368ZM149.829 457.649C149.829 457.649 149.779 457.649 149.829 457.649L149.829 457.649ZM149.829 457.649C135.111 449.495 97.3231 380.482 93.5442 368.25C126.51 384.161 169.021 404.795 205.467 409.32C203.23 410.861 153.309 457.798 149.829 457.649C149.829 457.649 149.829 457.649 149.829 457.649ZM138.095 314.551C131.382 300.48 113.731 245.041 117.411 230.373C141.973 245.14 180.706 255.83 211.682 261.647C188.91 280.442 163.602 298.491 138.095 314.551C138.095 314.551 138.095 314.551 138.095 314.551ZM180.756 179.508C179.861 174.237 172.104 119.693 176.43 115.566C193.086 129.786 223.864 135.107 243.305 140.725C228.289 152.459 206.959 169.663 180.756 179.508C180.756 179.508 180.756 179.508 180.756 179.508ZM309.832 484.151L309.832 484.151L309.882 484.151L309.882 484.151L309.882 484.151L309.832 484.151ZM235.946 82.3522C235.698 62.9608 239.526 47.6964 244.797 33.7744C254.542 39.8404 269.956 45.1606 277.563 47.7958C264.138 58.9831 252.155 73.8995 235.946 82.3522C235.946 82.3522 235.946 82.3522 235.946 82.3522ZM469.836 457.599C469.836 457.599 469.885 457.599 469.836 457.599L469.836 457.599ZM469.836 457.599C484.553 449.445 522.341 380.432 526.12 368.2C493.155 384.111 450.643 404.746 414.197 409.27C416.435 410.812 466.355 457.749 469.836 457.599C469.836 457.599 469.836 457.599 469.836 457.599ZM481.57 314.501C488.282 300.43 505.933 244.991 502.254 230.323C477.692 245.09 438.909 255.78 407.982 261.598C430.755 280.392 456.063 298.441 481.57 314.501C481.57 314.501 481.57 314.501 481.57 314.501ZM438.909 179.458C439.854 174.188 447.56 119.643 443.235 115.516C426.578 129.737 395.85 135.057 376.359 140.675C391.375 152.41 412.706 169.613 438.909 179.458C438.909 179.458 438.909 179.458 438.909 179.458ZM383.718 82.3522C384.017 62.9608 380.138 47.6964 374.918 33.7744C365.122 39.8404 349.709 45.1606 342.101 47.7958C355.576 58.9831 367.509 73.8995 383.718 82.3522C383.718 82.3522 383.718 82.3522 383.718 82.3522Z" fill="#000000" fill-rule="evenodd" opacity="1" stroke="none"/>
</g>
</svg>
